<svg id="visual" viewBox="0 0 900 600" width="900" height="600" xmlns="http://www.w3.org/2000/svg" xmlns:xlink="http://www.w3.org/1999/xlink" version="1.1"><path d="M0 233L21.5 240.2C43 247.3 86 261.7 128.8 289.5C171.7 317.3 214.3 358.7 257.2 354.7C300 350.7 343 301.3 385.8 283.3C428.7 265.3 471.3 278.7 514.2 306.7C557 334.7 600 377.3 642.8 371C685.7 364.7 728.3 309.3 771.2 292.7C814 276 857 298 878.5 309L900 320L900 601L878.5 601C857 601 814 601 771.2 601C728.3 601 685.7 601 642.8 601C600 601 557 601 514.2 601C471.3 601 428.7 601 385.8 601C343 601 300 601 257.2 601C214.3 601 171.7 601 128.8 601C86 601 43 601 21.5 601L0 601Z" fill="#432482" stroke-linecap="round" stroke-linejoin="miter"></path></svg>